HIERARCHY
ROOT pelvis
{
  OFFSET 0 100 0
  CHANNELS 6 Xposition Yposition Zposition Zrotation Xrotation Yrotation
  JOINT pelvis_right_femur
  {
    OFFSET -10.78128 -3.44521 -0.5502486
    CHANNELS 3 Zrotation Xrotation Yrotation
    JOINT right_femur_tibia
    {
      OFFSET -0.8047443 -44.0398 -0.1307829
      CHANNELS 3 Zrotation Xrotation Yrotation
      JOINT right_tibia_foot
      {
        OFFSET 3.006224 -47.83518 -5
        CHANNELS 3 Zrotation Xrotation Yrotation
        End Site
        {
          OFFSET 0 -5 15
        }
      }
    }
  }
  JOINT pelvis_left_femur
  {
    OFFSET 10.78128 -3.44521 -0.5502486
    CHANNELS 3 Zrotation Xrotation Yrotation
    JOINT left_femur_tibia
    {
      OFFSET 0.8047443 -44.0398 -0.1307829
      CHANNELS 3 Zrotation Xrotation Yrotation
      JOINT left_tibia_foot
      {
        OFFSET -4.370144 -48.10324 -4.275266
        CHANNELS 3 Zrotation Xrotation Yrotation
        End Site
        {
          OFFSET 0 -5 15
        }
      }
    }
  }
  JOINT pelvis_spine1
  {
    OFFSET 0 6.468898 -3.129235
    CHANNELS 3 Zrotation Xrotation Yrotation
    JOINT spine1
    {
      OFFSET 0 23.15396 4.99043
      CHANNELS 3 Zrotation Xrotation Yrotation
      JOINT spine2
      {
        OFFSET 0 20.79997 -5.064912
        CHANNELS 3 Zrotation Xrotation Yrotation
        JOINT neck
        {
          OFFSET 0 14.38658 9.616178
          CHANNELS 3 Zrotation Xrotation Yrotation
          End Site
          {
            OFFSET 0 20 0
          }
        }
      }
      JOINT right_manubrium
      {
        OFFSET -5.722621 16.35077 3.967754
        CHANNELS 3 Zrotation Xrotation Yrotation
        JOINT right_clavicle
        {
          OFFSET -13.16364 1.694482 -4.693211
          CHANNELS 3 Zrotation Xrotation Yrotation
          JOINT right_humerus
          {
            OFFSET -28.5034 -0.3100689 -2.792744
            CHANNELS 3 Zrotation Xrotation Yrotation
            JOINT right_radius
            {
              OFFSET -25.15693 0.02248979 -1.271978
              CHANNELS 3 Zrotation Xrotation Yrotation
              End Site
              {
                OFFSET -15 0 0
              }
            }
          }
        }
      }
      JOINT left_manubrium
      {
        OFFSET 5.722621 16.35077 3.967754
        CHANNELS 3 Zrotation Xrotation Yrotation
        JOINT left_clavicle
        {
          OFFSET 13.16364 1.694482 -4.693211
          CHANNELS 3 Zrotation Xrotation Yrotation
          JOINT left_humerus
          {
            OFFSET 29.39168 -1.063119 -2.237045
            CHANNELS 3 Zrotation Xrotation Yrotation
            JOINT left_radius
            {
              OFFSET 24.59957 -0.9528479 0.9047498
              CHANNELS 3 Zrotation Xrotation Yrotation
              End Site
              {
                OFFSET 15 -0 -0
              }
            }
          }
        }
      }
    }
  }
}
MOTION
Frames: 23
Frame Time: 0.0416666666667
0 103.5113 0 0.8634659 -1.019079 0.05649789 3.267395 -17.61629 7.808607 -0 36.74955 -0 -6.123417 -15.0256 -3.473647 -6.8671 11.98094 -22.93993 -0 5.388358 -0 6.437343 -18.15121 25.07753 -2.029299 -2.885938 4.373997 3.11023 7.563429 -7.575986 1.477633 21.13297 7.616805 3.874735 -27.07311 10.59673 6.612619 -17.96538 10.89751 83.74706 36.21771 -18.21787 -0 0 15.97694 -3.548429 8.148975 1.835708 8.735616 -20.53544 2.782669 -96.40355 24.90803 22.44583 0 0 -11.56206 15.06883 19.20682 -3.76541
0.2285205 103.3843 1.675294 0.355255 -0.1468124 0.03941386 4.157503 -20.21188 8.320502 -0 36.03319 -0 -6.150422 -14.61884 -3.798377 -6.492768 11.90389 -22.70158 -0 5.523365 -0 5.359804 -19.4235 24.5809 -2.003401 -2.763416 4.365476 3.14562 7.667661 -7.627835 1.404124 21.01456 7.686033 3.880554 -27.08788 10.53749 6.534309 -17.96177 11.00541 83.92497 36.25626 -18.30448 -0 0 15.76865 -3.941331 8.32188 2.167547 8.599036 -20.59045 2.641708 -95.95446 24.54668 22.15675 0 0 -12.13579 14.90607 18.63851 -3.635377
0.4980319 103.054 3.69332 -0.101127 0.7638455 0.008153273 4.890852 -24.37672 7.838215 -0 32.59552 -0 -6.046002 -12.52548 -3.28091 -6.33321 11.87576 -21.4803 -0 5.70613 -0 6.501644 -19.8396 24.062 -1.907401 -2.140909 4.372109 3.223209 9.140071 -8.123503 1.019042 20.30046 7.817686 3.837483 -26.7925 9.84918 6.016097 -18.08992 11.62601 86.15641 36.13176 -20.13043 -0 0 13.5994 -7.454419 9.628983 4.637143 7.44688 -21.27701 0.4385787 -92.50575 22.58137 19.85689 0 0 -17.14339 12.87227 14.21641 -1.087721
0.7701067 102.654 5.856103 -0.4953094 1.965564 -0.01336904 5.920765 -27.62379 8.404734 -0 30.30834 -0 -5.798099 -12.0002 -3.251058 -6.181371 11.89562 -21.19124 -0 6.020687 -0 6.761143 -20.66987 23.88949 -1.890911 -2.049285 4.355812 3.232799 9.37169 -8.210429 0.971457 20.19354 7.831451 3.819339 -26.73059 9.754431 5.887035 -18.1111 11.71272 86.58958 36.04462 -20.47649 -0 0 13.22616 -8.00955 9.797774 5.008473 7.273786 -21.40638 0.06955268 -91.91308 22.24863 19.40995 0 0 -18.03529 12.58881 13.50506 -0.7296129
1.041014 102.1234 8.3208 -0.8463662 2.998001 0.02129015 6.842972 -30.86937 8.523309 -0 26.93239 -0 -5.636561 -10.54298 -3.013628 -6.03416 12.08939 -20.46228 -0 6.656126 -0 6.993418 -21.45324 23.37139 -1.85782 -1.926102 4.346192 3.230558 9.622482 -8.302694 0.9079698 20.06975 7.854637 3.801231 -26.64045 9.631743 5.702019 -18.13249 11.81338 87.0821 35.90853 -20.83163 -0 0 12.81729 -8.711273 9.997216 5.459502 7.074552 -21.56687 -0.3235005 -91.22234 21.84375 18.89742 0 0 -19.05764 12.22401 12.67423 -0.3060713
1.299788 101.4941 11.14426 -1.169411 3.901895 0.1621875 7.722103 -33.48661 8.608785 -0 23.46882 -0 -5.530517 -8.91399 -2.831778 -5.851662 12.39528 -19.71026 -0 7.651213 -0 6.634056 -22.29973 22.58273 -1.84109 -1.865924 4.339745 3.22701 9.751199 -8.350138 0.8784054 20.00996 7.863238 3.790206 -26.58895 9.569597 5.601198 -18.14358 11.86083 87.344 35.82554 -21.02114 -0 0 12.60487 -9.070762 10.09298 5.684296 6.975049 -21.65248 -0.5289516 -90.86756 21.64171 18.62649 0 0 -19.58767 12.03781 12.25447 -0.08822223
1.534247 100.7546 14.51058 -1.41383 4.450126 0.4796492 8.218313 -35.34544 8.027369 -0 19.29047 -0 -5.544563 -6.566416 -2.571146 -5.632736 13.00376 -18.49909 -0 9.223322 -0 5.497331 -23.06677 21.06174 -1.820509 -1.804318 4.339323 3.217748 9.864124 -8.389285 0.8475961 19.95569 7.873274 3.781614 -26.53562 9.506416 5.497501 -18.15455 11.90466 87.57645 35.73778 -21.17311 -0 0 12.42326 -9.424446 10.18342 5.89976 6.88269 -21.73259 -0.7043251 -90.54768 21.45271 18.39145 0 0 -20.05607 11.84901 11.86922 0.1208368
1.733244 99.9529 18.61025 -1.562836 4.554997 1.041046 8.173803 -35.90646 6.700443 -0 14.97072 -0 -5.688772 -3.877798 -2.331466 -5.362034 13.95932 -16.84856 -0 11.60838 -0 3.230125 -23.47373 18.60408 -1.802563 -1.754453 4.343923 3.205173 9.951681 -8.416512 0.8218923 19.91597 7.879452 3.776109 -26.48525 9.449857 5.415474 -18.16246 11.93742 87.74674 35.66148 -21.27752 -0 0 12.291 -9.719404 10.25838 6.073674 6.810418 -21.7954 -0.8366364 -90.30783 21.31319 18.22182 0 0 -20.39808 11.68313 11.57436 0.3021931
1.889883 99.21884 23.63185 -1.640941 4.168293 1.84654 7.624651 -34.69692 4.76355 -0 11.49774 -0 -6.018216 -1.371477 -2.227397 -5.004325 15.21119 -14.75609 -0 15.33245 -0 -0.1909793 -22.79168 15.15449 -1.781308 -1.700839 4.357914 3.18447 10.03476 -8.436591 0.7924797 19.88017 7.884565 3.77351 -26.42413 9.382411 5.334501 -18.1699 11.96883 87.88871 35.5788 -21.34823 -0 0 12.18231 -10.0396 10.34063 6.256285 6.738311 -21.85487 -0.9537345 -90.09245 21.18696 18.0863 0 0 -20.6856 11.49026 11.29454 0.507288
2.016201 98.80505 29.55951 -1.868055 3.552526 2.684729 7.30872 -31.85849 3.440672 -0 10.86093 -0 -6.591902 -0.106908 -2.440697 -4.444648 16.05198 -12.72867 -0 21.12104 -0 -3.682163 -19.90068 11.66623 -1.75694 -1.642905 4.388565 3.150241 10.11349 -8.4446 0.7572246 19.85182 7.885694 3.776057 -26.34165 9.294138 5.263807 -18.1752 11.99771 87.97545 35.49027 -21.3622 -0 0 12.11278 -10.40407 10.43914 6.455579 6.666093 -21.90677 -1.050243 -89.92066 21.0901 18.01035 0 0 -20.87476 11.24813 11.04117 0.7618354
2.137977 98.91911 36.02229 -2.44744 3.006715 3.125766 7.94071 -28.39716 3.926276 -0 13.42591 -0 -7.354805 -0.5391471 -2.832658 -3.60046 15.1002 -11.46671 -0 29.52504 -0 -5.6159 -14.5536 9.624873 -1.727987 -1.575322 4.450918 3.091422 10.18674 -8.429906 0.7102611 19.83553 7.87989 3.787609 -26.21857 9.166041 5.211726 -18.17833 12.024 87.9595 35.39453 -21.26815 -0 0 12.11386 -10.85881 10.5702 6.695134 6.589752 -21.94338 -1.113567 -89.81968 21.0406 18.03961 0 0 -20.8954 10.91238 10.82302 1.111704
2.25037 99.49205 42.56996 -2.847092 1.998944 2.94939 8.670857 -24.44346 4.973864 -0 15.68484 -0 -7.838588 -1.671682 -3.010339 -2.842408 11.99796 -10.68928 -0 39.71769 -0 -6.334916 -9.093641 9.27972 -1.696497 -1.495647 4.565753 2.994265 10.24349 -8.373101 0.6469121 19.84148 7.862278 3.812091 -26.03168 8.979023 5.193414 -18.18211 12.04492 87.75793 35.30018 -20.97792 -0 0 12.24178 -11.43907 10.74505 6.996351 6.508116 -21.94607 -1.117234 -89.83827 21.06922 18.24323 0 0 -20.64111 10.44285 10.66991 1.597882
2.333842 100.4441 48.94049 -2.56716 0.1265178 2.345124 8.529745 -19.26394 5.026286 -0 16.00787 -0 -8.064319 -3.147313 -3.024322 -2.564901 7.581041 -9.753188 -0 49.80327 -0 -6.72339 -5.813875 9.979599 -1.667197 -1.39885 4.750525 2.847652 10.27328 -8.254206 0.5647052 19.87617 7.829514 3.846496 -25.7603 8.72231 5.198864 -18.20176 12.06069 87.31492 35.21348 -20.40397 -0 0 12.54046 -12.18267 10.96048 7.395037 6.410207 -21.89708 -1.050021 -89.97772 21.17001 18.64912 0 0 -20.09562 9.819626 10.56961 2.236902
2.443151 101.7671 54.90521 -1.809878 -1.482709 1.664008 7.704453 -13.12073 4.557916 -0 15.00836 -0 -8.247011 -5.483166 -2.71136 -2.644324 1.181329 -8.883527 -0 57.78023 -0 -6.591673 -4.347876 10.69499 -1.650473 -1.284979 5.010938 2.649374 10.26681 -8.05889 0.4685286 19.9436 7.7765 3.878662 -25.39236 8.401909 5.20109 -18.26139 12.07196 86.61426 35.14113 -19.48557 -0 0 13.02973 -13.09576 11.1916 7.919983 6.28093 -21.7802 -0.9226918 -90.19387 21.30692 19.23149 0 0 -19.33713 9.069085 10.48585 2.998338
2.604472 103.1649 60.4853 -0.6645624 -2.504771 1.11199 6.337255 -7.014903 4.030311 -0 12.93427 -0 -7.935163 -7.785775 -2.206096 -2.780894 -6.198248 -8.036193 -0 61.44694 -0 -5.821798 -4.163818 11.38865 -1.660809 -1.160335 5.349428 2.400412 10.21201 -7.773504 0.3681513 20.05215 7.691129 3.892453 -24.90931 8.02627 5.180617 -18.38387 12.07701 85.63071 35.09194 -18.15797 -0 0 13.73146 -14.16406 11.40748 8.589908 6.106679 -21.57419 -0.7508005 -90.44517 21.44998 19.96019 0 0 -18.43874 8.233973 10.40295 3.837681
2.756758 104.1942 65.87285 0.4171075 -3.646277 0.6473167 5.08471 -1.355284 3.670226 -0 10.88196 -0 -7.25722 -9.11067 -1.9273 -2.426685 -12.68987 -6.921362 -0 60.00762 -0 -4.757648 -4.598704 13.13065 -1.711658 -1.034053 5.759096 2.108172 10.10066 -7.392956 0.2772693 20.21051 7.556275 3.86862 -24.29165 7.607461 5.121359 -18.58627 12.07455 84.36023 35.06458 -16.38399 -0 0 14.65131 -15.35572 11.5751 9.410228 5.873586 -21.26004 -0.5612022 -90.6855 21.56703 20.79103 0 0 -17.47753 7.368625 10.31846 4.698855
2.877247 104.5188 71.16559 0.8875454 -4.900001 0.1528171 4.574532 3.915065 3.533618 -0 9.390087 -0 -6.484796 -10.18403 -1.891938 -1.172374 -17.94644 -5.46364 -0 53.19118 -0 -4.116248 -5.047199 15.77438 -1.808787 -0.9163312 6.213262 1.791167 9.940014 -6.933331 0.2126448 20.42125 7.356524 3.790339 -23.53694 7.167261 5.012313 -18.86979 12.065 82.87073 35.03423 -14.22153 -0 0 15.74644 -16.61239 11.66507 10.35577 5.573308 -20.8341 -0.3985929 -90.8675 21.62604 21.65417 0 0 -16.53652 6.533726 10.23638 5.52165
3.035799 104.0904 76.42291 0.6909211 -5.517003 -0.4151262 4.677068 8.535225 3.435121 -0 8.498621 -0 -5.765103 -12.18418 -1.704959 0.6794772 -22.29355 -3.982098 -0 42.31726 -0 -3.990792 -5.305262 17.87423 -1.943172 -0.8133714 6.665473 1.476122 9.757837 -6.435161 0.1880018 20.674 7.09109 3.653099 -22.68294 6.739268 4.846417 -19.21552 12.05032 81.32941 34.95121 -11.8616 -0 0 16.91592 -17.8567 11.66061 11.36362 5.211991 -20.318 -0.312096 -90.96407 21.60386 22.47234 0 0 -15.67682 5.778885 10.15621 6.258626
3.31346 103.1167 81.77237 0.1602037 -5.231028 -1.020515 4.890676 12.18409 3.263894 -0 8.385396 -0 -5.078541 -14.80268 -1.161246 2.416259 -25.58842 -2.793307 -0 30.62019 -0 -3.947882 -5.360059 18.74747 -2.089716 -0.7242447 7.058434 1.190059 9.604094 -5.958432 0.2066574 20.93984 6.786731 3.473219 -21.8253 6.366947 4.618638 -19.58842 12.03224 79.99901 34.7561 -9.631423 -0 0 18.00683 -19.01165 11.56545 12.33986 4.817984 -19.7653 -0.3400856 -90.9811 21.49606 23.17911 0 0 -14.92866 5.128326 10.05044 6.893649
3.746262 101.8979 87.3839 -0.3330733 -4.473926 -1.627927 4.807851 14.91542 3.072087 -0 9.3564 -0 -4.359608 -16.92948 -0.437005 3.380409 -27.49243 -2.182786 -0 21.19102 -0 -3.774636 -5.353139 18.82304 -2.217426 -0.6427273 7.348038 0.9482395 9.532317 -5.559234 0.258216 21.17948 6.493616 3.28469 -21.09114 6.088669 4.328982 -19.95145 12.01011 79.13391 34.412 -7.875211 -0 0 18.87014 -20.02696 11.40407 13.19118 4.437187 -19.24769 -0.4911628 -90.9542 21.32465 23.73987 0 0 -14.29416 4.578173 9.868116 7.445891
4.324925 100.7003 93.42144 -0.5155197 -3.807309 -2.227256 4.205966 17.05594 2.917519 -0 11.55102 -0 -3.589509 -17.52555 0.2191767 3.215589 -28.03545 -2.34641 -0 15.60601 -0 -3.576457 -5.497403 18.782 -2.306083 -0.5640905 7.524116 0.7501183 9.566979 -5.263547 0.3259871 21.36517 6.258113 3.122228 -20.56577 5.918066 3.994825 -20.27437 11.98121 78.82694 33.92886 -6.771788 -0 0 19.43224 -20.88504 11.21215 13.85926 4.11505 -18.824 -0.7383428 -90.92217 21.13523 24.1464 0 0 -13.76803 4.111136 9.579075 7.948644
5.016222 99.71007 99.98483 -0.2767633 -3.566357 -2.781303 3.078248 18.83074 2.842653 -0 15.04817 -0 -2.793434 -15.96585 0.6421584 1.993308 -27.51836 -3.232579 -0 13.8088 -0 -3.510483 -5.911633 18.96698 -2.352291 -0.4874263 7.60533 0.5873962 9.695551 -5.066307 0.3967602 21.49091 6.10064 3.005585 -20.2544 5.841909 3.649531 -20.53554 11.94445 78.98959 33.3509 -6.289201 -0 0 19.70553 -21.59099 11.0232 14.3325 3.877318 -18.52013 -1.039161 -90.89991 20.97299 24.39668 0 0 -13.35737 3.711407 9.194011 8.425797
5.786454 99.06493 107.056 0.3288407 -3.846816 -3.183364 1.60062 20.09449 2.908564 -0 20.20398 -0 -2.028668 -12.16474 0.6993272 0.0606215 -26.08761 -4.61644 -0 14.79761 -0 -3.582989 -6.594396 19.29798 -2.361747 -0.4129858 7.617222 0.4532801 9.89165 -4.952144 0.4629058 21.56202 6.019997 2.938761 -20.11738 5.836699 3.324846 -20.7229 11.90204 79.47482 32.72513 -6.304534 -0 0 19.7379 -22.16054 10.8613 14.62901 3.727291 -18.33671 -1.360723 -90.87763 20.86215 24.4877 0 0 -13.08235 3.367737 8.737263 8.888507
